PathFileType	4	(X/Y/Z)	/Users/niels/Desktop/University/Third Semester/Perception and Action/Exam/Gymnastics Motion Tracking/Code for Gym Tracking/Analyzed Data/Webcam_Backflip/id2_1_pure_Sports2D/id2_1_pure_Sports2D_px_person00.trc
DataRate	CameraRate	NumFrames	NumMarkers	Units	OrigDataRate	OrigDataStartFrame	OrigNumFrames
29.875	29.875	9	22	m	29.875	180	240
Frame#	Time	Hip			RHip			RKnee			RAnkle			RBigToe			RSmallToe			RHeel			LHip			LKnee			LAnkle			LBigToe			LSmallToe			LHeel			Neck			Head			Nose			RShoulder			RElbow			RWrist			LShoulder			LElbow			LWrist		
		X1	Y1	Z1	X2	Y2	Z2	X3	Y3	Z3	X4	Y4	Z4	X5	Y5	Z5	X6	Y6	Z6	X7	Y7	Z7	X8	Y8	Z8	X9	Y9	Z9	X10	Y10	Z10	X11	Y11	Z11	X12	Y12	Z12	X13	Y13	Z13	X14	Y14	Z14	X15	Y15	Z15	X16	Y16	Z16	X17	Y17	Z17	X18	Y18	Z18	X19	Y19	Z19	X20	Y20	Z20	X21	Y21	Z21	X22	Y22	Z22
180	6.02510460251046	0.9329356230970351	-0.5628082321529614	0.0	0.9330875988697693	-0.5602524443701367	0.0	0.9541337348520155	-0.6768317046040337	0.0	0.9338319535358431	-0.7952472376267988	0.0	0.9712151979152986	-0.8143524614847214	0.0	0.9584954803992378	-0.8196672534571944	0.0	0.9210189864956675	-0.8126206008774038	0.0	0.9393131238740163	-0.560015156882416	0.0	0.9553297950912466	-0.6761269626513902	0.0	0.9421219799785782	-0.7876020959987796	0.0	0.9831982478894903	-0.8068747393633363	0.0	0.9809926701701902	-0.8027889236539211	0.0	0.927084955473012	-0.8043241541416145	0.0	0.9441873746299921	-0.40948237546668875	0.0	0.9973264727877815	-0.34466361722747224	0.0	0.979199648741607	-0.38757470293345536	0.0	0.9332560184575058	-0.41164938924196304	0.0	0.9385130076723371	-0.3310787259671995	0.0	0.9462083406543065	-0.2625336675339402	0.0	0.937440535038982	-0.414932235961083	0.0	0.9420982943362457	-0.3376283369842495	0.0	0.9451740319904958	-0.26663863854240244	0.0
181	6.05857740585774	0.9331627121059101	-0.5636892252447228	0.0	0.9334177802521573	-0.5610127152559247	0.0	0.9552017418324189	-0.6774288148141651	0.0	0.9341194285394572	-0.7955792792044607	0.0	0.9715660562536184	-0.8150498722019929	0.0	0.9586044041654186	-0.8202114651838307	0.0	0.9211993445585567	-0.8129017619936101	0.0	0.9392761576829843	-0.5606942762803666	0.0	0.9559822659720759	-0.6769020572052994	0.0	0.9426575855337529	-0.7879724961074571	0.0	0.9832419962087702	-0.8073805531067308	0.0	0.9810702662271127	-0.803303967294181	0.0	0.9277079826908107	-0.8045314017132306	0.0	0.9439304788779246	-0.41003382190607174	0.0	0.9975215828553355	-0.3454850594320691	0.0	0.9790830497070508	-0.38817480030206847	0.0	0.9333303392752993	-0.4119891749791808	0.0	0.9385453416076062	-0.3320668026176582	0.0	0.9456601486832961	-0.26327426008739063	0.0	0.9369985801994853	-0.4152951977067401	0.0	0.9417615469306276	-0.3390850639132919	0.0	0.9445323931379281	-0.2675349435557265	0.0
182	6.092050209205021	0.9333440198622025	-0.5647573740882904	0.0	0.9337115585087415	-0.5618759150096895	0.0	0.9558795059273578	-0.6780717213283092	0.0	0.9344084418570832	-0.7960743618634424	0.0	0.9719798613392374	-0.8159766656238577	0.0	0.9588485829469451	-0.8208701924684786	0.0	0.9214049754561605	-0.8134983987609085	0.0	0.9392015421382924	-0.5615049949413552	0.0	0.9565646904133753	-0.6777368920513589	0.0	0.9432668642453189	-0.7884259505007004	0.0	0.9836444235370951	-0.8079917254336907	0.0	0.9814028002433685	-0.8039154294643132	0.0	0.9286399397600694	-0.8050119219794073	0.0	0.9436462728048663	-0.41073268857164974	0.0	0.9977508551059375	-0.3463262159275279	0.0	0.9790197059361354	-0.388856820395364	0.0	0.9334142935640752	-0.4124828592250911	0.0	0.9386304912643115	-0.3331444099876352	0.0	0.9453952730215194	-0.26399767263724994	0.0	0.9364800028545471	-0.41579196121375317	0.0	0.9414899636861042	-0.34031586498631305	0.0	0.9440726610594484	-0.2682803966655023	0.0
183	6.125523012552301	0.9335010180931144	-0.5658597906970773	0.0	0.9339437013204112	-0.5627787880326207	0.0	0.9562037058164886	-0.6787159715159199	0.0	0.934663439856013	-0.7966695102190592	0.0	0.97236829577628	-0.8169617788588304	0.0	0.9591395847564365	-0.8216024666578344	0.0	0.92154251302531	-0.8143225876084877	0.0	0.9391513931541455	-0.5624053436209222	0.0	0.9570849691593913	-0.6785640106615229	0.0	0.9438526290766392	-0.7889029803294765	0.0	0.9843129564336084	-0.8086414355667404	0.0	0.9818963523976114	-0.804550114316761	0.0	0.9297566470276898	-0.8057081752648176	0.0	0.9432890202359091	-0.4114757116216157	0.0	0.997817621885563	-0.3469906233725871	0.0	0.978862225513409	-0.3894186324134607	0.0	0.9334488663265037	-0.4131099962856085	0.0	0.9387800074926586	-0.3341953946104247	0.0	0.9454598484919142	-0.2645885325408949	0.0	0.9359182722173109	-0.41636006537207826	0.0	0.9413571404957914	-0.34122683076886645	0.0	0.9439017473400136	-0.26879331349296137	0.0
184	6.158995815899581	0.9336846606179522	-0.5668379084393352	0.0	0.9341474311105196	-0.5636837438404279	0.0	0.9562898191836776	-0.6793717815621059	0.0	0.9348730497346699	-0.7972589702024511	0.0	0.9726224596698518	-0.8178026206262506	0.0	0.9593851965271963	-0.8223116753576705	0.0	0.9215691093455932	-0.8152233712665287	0.0	0.9391789218193256	-0.563304034972165	0.0	0.957505968239677	-0.6793394091791767	0.0	0.9442766826838361	-0.7893403429345368	0.0	0.9850260148014351	-0.8092115930912684	0.0	0.9823694473676156	-0.8050775040161298	0.0	0.9307532481822292	-0.8065220038259141	0.0	0.9428456050884277	-0.4121946387623893	0.0	0.9975562168956967	-0.34736913486737236	0.0	0.9785232731449315	-0.389729878371287	0.0	0.9333943417938442	-0.4138412661632608	0.0	0.938912242718954	-0.3351646502353304	0.0	0.9458158387266378	-0.2651216717342459	0.0	0.9353698545465344	-0.4169625872177255	0.0	0.9413546466509343	-0.3418850251581256	0.0	0.9440749618712212	-0.2691620273558926	0.0
185	6.192468619246862	0.9339381271891121	-0.5675751251747589	0.0	0.934410730579609	-0.5645382606234568	0.0	0.9562530278387066	-0.6800478789258719	0.0	0.9350005312231986	-0.7977130877122632	0.0	0.9726511825097195	-0.8183088464517091	0.0	0.9595472627848494	-0.8228321848833425	0.0	0.9215157662852239	-0.8160097166495149	0.0	0.9392804451291165	-0.5640703790607628	0.0	0.9577359637142323	-0.6800272088941874	0.0	0.9443969324957359	-0.789664083976927	0.0	0.9855192544139659	-0.8095853042151868	0.0	0.9826446814455484	-0.8053671817933582	0.0	0.9312428782522219	-0.8072898004347318	0.0	0.9423690482455258	-0.4128684273038932	0.0	0.9968562151135295	-0.34739795869512796	0.0	0.9780379013502936	-0.3897200478959403	0.0	0.9332226341714189	-0.41462182120635027	0.0	0.9389169542160046	-0.3360150652569427	0.0	0.9463696260742849	-0.265705137976833	0.0	0.934911516102322	-0.41758154097071465	0.0	0.9414311412720774	-0.3424645688337073	0.0	0.9445902891607518	-0.2695217900297388	0.0
186	6.225941422594142	0.9342795718713512	-0.5680295994567643	0.0	0.9348063466762807	-0.5652924900484723	0.0	0.956175417724309	-0.6807430397633949	0.0	0.934968609284211	-0.7979872395475974	0.0	0.9724024378745347	-0.8183916422404539	0.0	0.959616721258167	-0.8230388326300018	0.0	0.9214330374007822	-0.8165748815808824	0.0	0.9394313958274885	-0.5646278834955196	0.0	0.9576906972276882	-0.6805968027476541	0.0	0.9441357711642426	-0.789853756170973	0.0	0.9856425471952399	-0.8097111556055332	0.0	0.9826504406569109	-0.8053625372116511	0.0	0.9309967519089193	-0.8078757524809114	0.0	0.9419563779792626	-0.41346102426532094	0.0	0.9956587038488961	-0.3470028641922762	0.0	0.9775411321697978	-0.38932829766232746	0.0	0.9329256990481066	-0.41535477819041466	0.0	0.9387729881476472	-0.33665787138713643	0.0	0.9470023658743738	-0.2662372828245243	0.0	0.9346356275022093	-0.4181748687722329	0.0	0.9415602840605396	-0.34307631789451454	0.0	0.9453752456691039	-0.2698827820398871	0.0
187	6.2594142259414225	0.9347307199047716	-0.568221981316621	0.0	0.9353685882579804	-0.5659127822589968	0.0	0.9561082565736249	-0.6814664481697253	0.0	0.93471854390646	-0.7981641380167731	0.0	0.9718630270164966	-0.8180971027000012	0.0	0.959565696592195	-0.8229481414254998	0.0	0.9213373050268937	-0.8169502107627391	0.0	0.939644393980429	-0.5649857188309633	0.0	0.9573534495115557	-0.6810437417714041	0.0	0.9435160494840692	-0.789984373123171	0.0	0.9854422669642643	-0.809613029329287	0.0	0.9824221088138233	-0.8051065864709012	0.0	0.9300661335664059	-0.8082783383513903	0.0	0.9416937373653131	-0.4138568417128932	0.0	0.9939901927225654	-0.3461405302726962	0.0	0.9771823058426029	-0.3885203837237391	0.0	0.9325535496286401	-0.4158907410807344	0.0	0.9385779540946976	-0.3369883477725183	0.0	0.9476008098102277	-0.2664580252054637	0.0	0.9346163456056273	-0.41864381346576823	0.0	0.9417578035386458	-0.3436742282174632	0.0	0.9462980953934069	-0.27016482924493185	0.0
188	6.2928870292887025	0.9353119609840882	-0.5681715225268905	0.0	0.9361230067381727	-0.5663153729223839	0.0	0.9560688165649409	-0.6821916069703181	0.0	0.9342783289506564	-0.7983530971735362	0.0	0.9711121983709533	-0.8175408602868753	0.0	0.959370130890022	-0.8226786411194861	0.0	0.92121424615954	-0.8172013244101161	0.0	0.9399530849061577	-0.5651354484923629	0.0	0.9567946180091836	-0.6813669935923576	0.0	0.9426708779165219	-0.7901418995054323	0.0	0.9850755193904405	-0.8093648324052882	0.0	0.9820379953063687	-0.8047158076969807	0.0	0.9287203163221333	-0.8085719678958344	0.0	0.941619610405007	-0.4138868097451238	0.0	0.99199776468261	-0.34483953083239005	0.0	0.9770271062741237	-0.38734741059954814	0.0	0.9322291024989421	-0.4160545447955235	0.0	0.9384635346343284	-0.3369536894304984	0.0	0.9480798349858323	-0.266168634410259	0.0	0.9348278743567102	-0.4188344908577526	0.0	0.9420461200801322	-0.34410025568852065	0.0	0.9471878698403556	-0.27027296681738056	0.0
